<svg xmlns="http://www.w3.org/2000/svg" width="256" height="256" viewBox="0 0 100 100"><rect width="100" height="100" rx="50" fill="#662f87"></rect><path fill="#fff" d="M25.48 53.69L21.34 53.69L21.34 62.51Q21.09 62.59 20.68 62.69Q20.27 62.79 19.78 62.79L19.78 62.79Q17.98 62.79 17.98 61.28L17.98 61.28L17.98 39.46Q17.98 38.81 18.31 38.46Q18.63 38.11 19.33 37.91L19.33 37.91Q20.52 37.54 22.22 37.37Q23.92 37.21 25.52 37.21L25.52 37.21Q30.73 37.21 33.13 39.40Q35.53 41.59 35.53 45.33L35.53 45.33Q35.53 49.14 33.07 51.41Q30.61 53.69 25.48 53.69L25.48 53.69ZM21.30 50.90L25.28 50.90Q28.56 50.90 30.36 49.55Q32.16 48.20 32.16 45.37L32.16 45.37Q32.16 42.58 30.42 41.29Q28.68 40.00 25.44 40.00L25.44 40.00Q24.33 40.00 23.25 40.10Q22.16 40.20 21.30 40.37L21.30 40.37L21.30 50.90ZM48.73 53.69L44.59 53.69L44.59 62.51Q44.34 62.59 43.93 62.69Q43.52 62.79 43.03 62.79L43.03 62.79Q41.23 62.79 41.23 61.28L41.23 61.28L41.23 39.46Q41.23 38.81 41.55 38.46Q41.88 38.11 42.58 37.91L42.58 37.91Q43.77 37.54 45.47 37.37Q47.17 37.21 48.77 37.21L48.77 37.21Q53.98 37.21 56.38 39.40Q58.77 41.59 58.77 45.33L58.77 45.33Q58.77 49.14 56.31 51.41Q53.85 53.69 48.73 53.69L48.73 53.69ZM44.55 50.90L48.52 50.90Q51.80 50.90 53.61 49.55Q55.41 48.20 55.41 45.37L55.41 45.37Q55.41 42.58 53.67 41.29Q51.93 40.00 48.69 40.00L48.69 40.00Q47.58 40.00 46.49 40.10Q45.41 40.20 44.55 40.37L44.55 40.37L44.55 50.90ZM71.98 53.69L67.83 53.69L67.83 62.51Q67.59 62.59 67.18 62.69Q66.77 62.79 66.28 62.79L66.28 62.79Q64.47 62.79 64.47 61.28L64.47 61.28L64.47 39.46Q64.47 38.81 64.80 38.46Q65.13 38.11 65.83 37.91L65.83 37.91Q67.02 37.54 68.72 37.37Q70.42 37.21 72.02 37.21L72.02 37.21Q77.22 37.21 79.62 39.40Q82.02 41.59 82.02 45.33L82.02 45.33Q82.02 49.14 79.56 51.41Q77.10 53.69 71.98 53.69L71.98 53.69ZM67.79 50.90L71.77 50.90Q75.05 50.90 76.86 49.55Q78.66 48.20 78.66 45.37L78.66 45.37Q78.66 42.58 76.92 41.29Q75.17 40.00 71.94 40.00L71.94 40.00Q70.83 40.00 69.74 40.10Q68.66 40.20 67.79 40.37L67.79 40.37L67.79 50.90Z"></path></svg>